<svg width="184" height="185" fill="none" xmlns="http://www.w3.org/2000/svg"><g filter="url(#a)"><path d="M90.019 6.632a2 2 0 0 1 2.962 0l9.103 10.033a2 2 0 0 0 2.475.392l11.758-6.729a2 2 0 0 1 2.817.916l5.558 12.354a2 2 0 0 0 2.232 1.138l13.262-2.766a2 2 0 0 1 2.396 1.741l1.468 13.468a2 2 0 0 0 1.771 1.771l13.468 1.468a2 2 0 0 1 1.741 2.396l-2.766 13.262a2.001 2.001 0 0 0 1.138 2.232l12.354 5.558a2 2 0 0 1 .916 2.817l-6.729 11.758a2 2 0 0 0 .392 2.475l10.033 9.103a2.001 2.001 0 0 1 0 2.962l-10.033 9.103a2.001 2.001 0 0 0-.392 2.475l6.729 11.758a2 2 0 0 1-.916 2.817l-12.354 5.558a2 2 0 0 0-1.138 2.232l2.766 13.262a2 2 0 0 1-1.741 2.396l-13.468 1.468a2 2 0 0 0-1.771 1.771l-1.468 13.468a2 2 0 0 1-2.396 1.741l-13.262-2.766a2 2 0 0 0-2.232 1.138l-5.558 12.354a2 2 0 0 1-2.817.916l-11.758-6.729a2.001 2.001 0 0 0-2.475.392l-9.103 10.033a2.001 2.001 0 0 1-2.962 0l-9.103-10.033a2 2 0 0 0-2.475-.392l-11.758 6.729a2 2 0 0 1-2.817-.916l-5.558-12.354a2.001 2.001 0 0 0-2.232-1.138l-13.262 2.766a2 2 0 0 1-2.396-1.741l-1.468-13.468a2 2 0 0 0-1.772-1.771l-13.467-1.468a2 2 0 0 1-1.741-2.396l2.766-13.262a2 2 0 0 0-1.138-2.232l-12.354-5.558a2 2 0 0 1-.916-2.817l6.729-11.758a2 2 0 0 0-.392-2.475L6.632 92.981a2 2 0 0 1 0-2.962l10.033-9.103a2 2 0 0 0 .392-2.475l-6.729-11.758a2 2 0 0 1 .916-2.817l12.354-5.558a2 2 0 0 0 1.138-2.232L21.97 42.814a2 2 0 0 1 1.741-2.396L37.18 38.95a2 2 0 0 0 1.771-1.772l1.468-13.467a2 2 0 0 1 2.396-1.741l13.262 2.766a2 2 0 0 0 2.232-1.138l5.558-12.354a2 2 0 0 1 2.817-.916l11.758 6.729a2 2 0 0 0 2.475-.392l9.103-10.033Z" fill="url(#b)"/></g><path d="M91.477 156.279c35.782 0 64.79-29.004 64.79-64.781 0-35.778-29.008-64.782-64.79-64.782-35.783 0-64.79 29.004-64.79 64.782 0 35.777 29.007 64.781 64.79 64.781Z" fill="url(#c)"/><path d="M36.475 105.826c.045.241.113.432.203.572.09.143.193.249.307.317a.8.8 0 0 0 .363.117c.129.01.256.003.382-.021.145-.026.27-.07.379-.132a.618.618 0 0 0 .255-.249.934.934 0 0 0 .115-.396c.014-.159 0-.354-.044-.585l-.241-1.275-1.963.366.244 1.286Zm4.887-2.243-1.946.363.18.951c.038.202.087.381.146.538.06.157.136.284.23.382.093.102.209.17.346.204.138.038.302.039.493.004.188-.035.338-.088.452-.157a.684.684 0 0 0 .262-.273.921.921 0 0 0 .091-.403 2.547 2.547 0 0 0-.051-.539l-.203-1.07Zm1.57.815c.104.544.141 1.017.112 1.417-.028.401-.112.739-.25 1.015a1.621 1.621 0 0 1-.57.649 2.272 2.272 0 0 1-.85.332 1.802 1.802 0 0 1-.528.02 1.542 1.542 0 0 1-.505-.152 1.938 1.938 0 0 1-.468-.344 2.653 2.653 0 0 1-.424-.553c-.028.542-.159.964-.393 1.265-.234.301-.575.493-1.021.576a2.2 2.2 0 0 1-1.838-.452 2.774 2.774 0 0 1-.678-.83 4.161 4.161 0 0 1-.417-1.226l-.596-3.145 7.878-1.468.549 2.896ZM43.155 111l-1.77.606.829 2.379-1.301.445-.828-2.379-1.806.619 1.081 3.106-1.352.463-1.696-4.872 7.58-2.597 1.697 4.872-1.353.464L43.155 111ZM46.36 118.836a.664.664 0 0 1-.257-.07.377.377 0 0 1-.162-.177.6.6 0 0 1-.054-.28c.006-.11.011-.235.015-.375a2.462 2.462 0 0 0-.029-.452 1.627 1.627 0 0 0-.167-.518c-.156-.312-.34-.512-.552-.599-.207-.086-.424-.074-.65.038a.55.55 0 0 0-.292.315c-.05.139-.072.299-.067.481.006.184.027.387.063.606.04.221.075.449.103.685.03.234.046.47.046.707.001.24-.035.471-.11.691a1.849 1.849 0 0 1-.36.631 2.101 2.101 0 0 1-.697.514 2.794 2.794 0 0 1-1.018.287 2.457 2.457 0 0 1-1.011-.128 2.628 2.628 0 0 1-.912-.557 3.394 3.394 0 0 1-.726-.997 3.93 3.93 0 0 1-.273-.718 4.678 4.678 0 0 1-.142-.763 4.49 4.49 0 0 1-.004-.758c.02-.247.066-.476.137-.687l1.025.109a.53.53 0 0 1 .38.266c.049.099.067.213.053.342l-.037.441c-.012.165-.008.345.012.54.02.195.085.404.196.627.15.301.334.503.55.606.218.101.472.08.761-.062a.666.666 0 0 0 .341-.34 1.17 1.17 0 0 0 .08-.492 3.59 3.59 0 0 0-.071-.597c-.043-.216-.083-.44-.12-.67a5.294 5.294 0 0 1-.056-.702c0-.237.038-.469.114-.694.081-.224.212-.437.393-.641.185-.205.445-.39.78-.555a2.295 2.295 0 0 1 1.795-.087c.306.111.594.29.865.537.275.245.51.565.707.958.11.22.198.442.265.666.072.226.12.45.145.671.028.219.034.433.019.64-.01.21-.043.407-.097.593l-.982-.032ZM50.327 124.647l-1.267-1.865-5.436 3.634-1.045-1.538 5.437-3.634-1.267-1.866 1.225-.819 3.579 5.269-1.226.819ZM55.8 130.785a.684.684 0 0 1-.265.014.382.382 0 0 1-.21-.117.604.604 0 0 1-.14-.249 10.053 10.053 0 0 0-.104-.36 2.426 2.426 0 0 0-.17-.419 1.62 1.62 0 0 0-.322-.44c-.246-.246-.484-.377-.713-.394-.224-.016-.426.064-.606.241a.554.554 0 0 0-.178.391c-.003.147.026.306.088.477.064.173.148.358.251.555.109.196.213.402.314.617.103.212.192.431.266.656.077.227.115.457.114.69.002.235-.046.472-.143.712a2.104 2.104 0 0 1-.5.706c-.264.26-.556.458-.877.593-.32.136-.654.201-1 .197a2.628 2.628 0 0 1-1.042-.241 3.39 3.39 0 0 1-1.004-.717 3.93 3.93 0 0 1-.485-.595 4.685 4.685 0 0 1-.376-.679 4.512 4.512 0 0 1-.243-.718 2.864 2.864 0 0 1-.087-.694l1.009-.22a.53.53 0 0 1 .444.134.61.61 0 0 1 .16.306c.03.13.064.273.103.431.04.16.101.33.18.508.08.179.209.356.385.532.239.239.476.373.713.403.24.026.474-.073.704-.299a.667.667 0 0 0 .217-.429 1.175 1.175 0 0 0-.08-.493 3.589 3.589 0 0 0-.255-.543 21.285 21.285 0 0 1-.326-.598 5.312 5.312 0 0 1-.274-.648 2.163 2.163 0 0 1-.11-.694c.006-.238.063-.481.17-.731.111-.253.3-.51.567-.773a2.299 2.299 0 0 1 1.678-.647c.325.01.655.088.99.237.338.146.663.375.974.686a4.2 4.2 0 0 1 .462.548c.14.192.256.389.349.591.095.199.168.399.22.601.056.202.087.399.094.593l-.942.279ZM58.599 132.886l-1.168 1.46 1.98 1.558-.858 1.074-1.98-1.558-1.192 1.491 2.585 2.034-.892 1.117-4.055-3.19 5.003-6.26 4.055 3.19-.893 1.117-2.585-2.033ZM62.51 138.495c.217.131.416.216.6.254a1.2 1.2 0 0 0 .517-.002c.157-.038.297-.107.42-.209.124-.104.233-.231.325-.381.184-.3.23-.594.136-.882-.09-.287-.341-.554-.752-.803l-.64-.388-1.245 2.024.64.387Zm1.152 5.662-1.44-.872c-.266-.161-.396-.377-.389-.647l.081-2.671a.609.609 0 0 0-.066-.291.624.624 0 0 0-.245-.232l-.404-.245-1.554 2.525-1.59-.964 4.2-6.824 2.23 1.351c.496.3.886.607 1.17.921.29.312.49.626.597.94.111.316.141.628.09.935a2.49 2.49 0 0 1-.346.897 2.527 2.527 0 0 1-.475.573c-.181.161-.381.29-.601.389a2.392 2.392 0 0 1-.707.183c-.25.028-.512.017-.787-.033.071.115.127.241.168.378.043.133.067.276.072.429l-.004 3.258ZM74.64 140.209l-6.131 6.102-1.55-.657.219-8.614 1.377.585a.613.613 0 0 1 .313.259.69.69 0 0 1 .095.35l-.272 4.546c-.007.2-.022.416-.047.649-.023.229-.053.467-.092.714.143-.202.287-.392.432-.57.149-.18.294-.341.436-.484l3.117-3.337a.66.66 0 0 1 .306-.169.607.607 0 0 1 .41.037l1.387.589ZM74.594 148.446l-1.792-.535 2.327-7.668 1.791.535-2.326 7.668ZM82.759 148.16a.338.338 0 0 1 .124.051c.04.023.077.058.109.105l.576.9c-.398.353-.857.59-1.377.711-.516.118-1.1.114-1.752-.011-.597-.114-1.114-.317-1.55-.61a3.604 3.604 0 0 1-1.041-1.073 3.81 3.81 0 0 1-.509-1.419 4.809 4.809 0 0 1 .047-1.654 4.5 4.5 0 0 1 .6-1.559c.287-.457.638-.83 1.053-1.12.415-.29.883-.488 1.404-.594a4.232 4.232 0 0 1 1.651.008c.296.057.568.137.817.24.253.101.484.22.692.357a3.348 3.348 0 0 1 .989.967l-.777.708a.886.886 0 0 1-.167.114.384.384 0 0 1-.239.016.416.416 0 0 1-.175-.078 2.592 2.592 0 0 1-.164-.138 3.949 3.949 0 0 0-.19-.176 1.316 1.316 0 0 0-.249-.188 2.034 2.034 0 0 0-.352-.179 2.555 2.555 0 0 0-.488-.139 2.076 2.076 0 0 0-.865.008c-.27.064-.518.187-.743.368a2.335 2.335 0 0 0-.575.707 3.621 3.621 0 0 0-.353 1.036 3.345 3.345 0 0 0-.047 1.105c.051.335.15.628.294.88a1.972 1.972 0 0 0 1.348.935c.166.032.319.054.458.065.14.009.274.006.4-.007.126-.017.247-.046.364-.087a2.39 2.39 0 0 0 .366-.182.574.574 0 0 1 .157-.06.351.351 0 0 1 .164-.007ZM87.082 144.062l-.132 1.865 2.513.175-.096 1.371-2.513-.174-.135 1.904 3.282.227-.1 1.427-5.148-.357.564-7.994 5.146.357-.1 1.427-3.281-.228ZM98.125 146.249l2.831-.321.387 3.36a4.22 4.22 0 0 1-1.231.799 5.155 5.155 0 0 1-1.42.365 5.071 5.071 0 0 1-1.827-.102 4.215 4.215 0 0 1-1.476-.697 3.808 3.808 0 0 1-1.034-1.189 4.208 4.208 0 0 1-.498-1.587 4.413 4.413 0 0 1 .107-1.667c.139-.522.37-.983.693-1.385a3.872 3.872 0 0 1 1.23-.992 4.822 4.822 0 0 1 1.71-.498c.331-.038.646-.046.944-.024.297.021.574.065.829.133a3.653 3.653 0 0 1 1.312.626l-.442.875a.517.517 0 0 1-.3.272c-.128.044-.274.027-.438-.05a4.776 4.776 0 0 0-.441-.177 2.324 2.324 0 0 0-.848-.153 4.07 4.07 0 0 0-.506.029c-.346.04-.65.137-.913.292a2.02 2.02 0 0 0-.652.594 2.368 2.368 0 0 0-.355.854c-.07.322-.083.674-.04 1.056.05.423.15.791.305 1.106.155.315.35.573.588.775.24.201.516.345.825.432a2.71 2.71 0 0 0 1.009.063c.222-.025.42-.07.594-.134a3.35 3.35 0 0 0 .51-.235l-.14-1.207-.787.089a.384.384 0 0 1-.283-.062.31.31 0 0 1-.126-.224l-.117-1.016ZM106.511 147.351a1.74 1.74 0 0 0 .611-.289c.169-.132.299-.291.39-.474.09-.184.14-.391.15-.621a2.433 2.433 0 0 0-.093-.761l-1.245-4.58 1.796-.481 1.245 4.581c.129.474.169.93.121 1.368a2.989 2.989 0 0 1-.38 1.2c-.209.364-.498.68-.865.949a3.96 3.96 0 0 1-1.322.61 3.959 3.959 0 0 1-1.457.133 3.119 3.119 0 0 1-1.229-.388 3.026 3.026 0 0 1-.937-.849 3.749 3.749 0 0 1-.583-1.244l-1.245-4.58 1.796-.481 1.243 4.575c.074.273.174.508.3.706.129.193.279.348.452.465.171.114.362.186.572.217.212.027.439.008.68-.056ZM114.578 142.788l-1.565-1.713a10.374 10.374 0 0 1-.359-.378c-.134-.15-.274-.313-.42-.49a8.76 8.76 0 0 1 .127 1.162l.203 2.291 2.014-.872Zm3.944 1.631-1.322.572a.65.65 0 0 1-.403.055.74.74 0 0 1-.324-.178l-.997-1.09-2.796 1.211.129 1.466a.682.682 0 0 1-.089.344.598.598 0 0 1-.305.264l-1.332.577-.381-8.567 1.746-.757 6.074 6.103ZM119.987 138.586c.216-.133.382-.272.499-.417.118-.15.195-.303.232-.459a1.019 1.019 0 0 0 0-.466 1.572 1.572 0 0 0-.196-.46c-.187-.298-.431-.471-.733-.518-.299-.048-.652.053-1.062.305l-.637.392 1.26 2.015.637-.392Zm5.615 1.529-1.433.882c-.266.164-.518.182-.758.054l-2.367-1.275a.63.63 0 0 0-.292-.072.632.632 0 0 0-.319.112l-.403.248 1.572 2.513-1.583.975-4.25-6.794 2.221-1.367c.493-.303.945-.51 1.356-.621.412-.116.783-.151 1.115-.105.334.044.628.157.882.342.253.184.47.42.651.709.138.221.239.448.302.68.063.232.09.468.079.707a2.31 2.31 0 0 1-.154.708 2.604 2.604 0 0 1-.384.682c.136-.01.275-.003.416.022.139.022.278.065.418.13l2.931 1.47ZM127.781 134.364l-1.989-1.198a9.815 9.815 0 0 1-.452-.261 16.36 16.36 0 0 1-.542-.35 8.54 8.54 0 0 1 .452 1.077l.846 2.138 1.685-1.406Zm4.249.445-1.106.923a.644.644 0 0 1-.371.166.738.738 0 0 1-.362-.078l-1.266-.762-2.34 1.952.54 1.368c.036.104.04.223.013.355a.607.607 0 0 1-.218.339l-1.115.93-2.8-8.1 1.461-1.219 7.564 4.126ZM131.651 123.127l6.128 5.163-.629.736a.907.907 0 0 1-.287.233.932.932 0 0 1-.371.061l-6.112-.209c.119.081.231.163.337.248.106.079.204.157.293.233l3.285 2.767-1.066 1.245-6.128-5.163.637-.744c.052-.061.099-.11.141-.147a.477.477 0 0 1 .13-.085.463.463 0 0 1 .145-.043c.055-.007.122-.01.203-.008l6.159.205a7.026 7.026 0 0 1-.688-.515l-3.243-2.732 1.066-1.245ZM136.732 117.792l-1.174 1.925 5.607 3.366-.968 1.587-5.607-3.366-1.174 1.926-1.264-.759 3.316-5.437 1.264.758ZM137.857 115.171l1.717.741 1.012-2.307 1.263.545-1.012 2.307 1.752.756 1.321-3.012 1.313.567-2.072 4.725-7.358-3.176 2.073-4.725 1.313.567-1.322 3.012ZM139.867 109.829l1.796.522.714-2.416 1.32.384-.714 2.416 1.833.533.932-3.154 1.373.4-1.462 4.947-7.695-2.238 1.463-4.948 1.373.4-.933 3.154ZM144.467 99.218a4.181 4.181 0 0 1 1.555.499c.459.257.844.588 1.155.993.307.404.528.873.664 1.407.132.53.158 1.105.08 1.723l-.393 3.088-7.951-.994.392-3.089c.079-.618.25-1.167.515-1.648.265-.484.596-.884.995-1.2a3.691 3.691 0 0 1 1.367-.677 4.138 4.138 0 0 1 1.621-.102Zm-.24 1.887a3.509 3.509 0 0 0-1.084.02 2.236 2.236 0 0 0-.858.342 1.865 1.865 0 0 0-.597.635 2.371 2.371 0 0 0-.3.921l-.156 1.233 5.113.64.157-1.233a2.415 2.415 0 0 0-.055-.966 1.93 1.93 0 0 0-.418-.762 2.281 2.281 0 0 0-.752-.543 3.54 3.54 0 0 0-1.05-.287Z" fill="#E9C11E"/><path d="M91.477 137.17c25.227 0 45.678-20.448 45.678-45.672 0-25.225-20.451-45.673-45.678-45.673-25.228 0-45.679 20.448-45.679 45.672 0 25.225 20.451 45.673 45.679 45.673Z" fill="url(#d)"/><path d="M38.804 78.765c2.945.607 4.374 2.76 3.82 5.39-.554 2.629-2.887 3.81-5.444 3.28-2.692-.554-4.35-2.693-3.8-5.346.563-2.741 2.95-3.834 5.424-3.324Zm-1.22 6.512c1.76.364 3.169-.209 3.45-1.565.283-1.356-.86-2.43-2.604-2.79-1.614-.33-3.16.156-3.447 1.556-.286 1.4.86 2.44 2.606 2.799h-.005ZM43.708 78.692l-8.651-3.047.806-2.284 3.806-.68a26.686 26.686 0 0 1 3.466-.365v-.039a34.127 34.127 0 0 1-3.665-1.103l-2.528-.89.632-1.798 8.652 3.047-.724 2.056-3.99.67a34.224 34.224 0 0 1-3.588.428v.044c1.162.35 2.392.754 3.801 1.254l2.605.918-.622 1.789ZM38.716 65.993l.943-1.856 6.62 3.373 1.663-3.227 1.55.792-2.6 5.103-8.176-4.185ZM43.46 57.547l7.733 4.933-1.118 1.754-7.733-4.933 1.118-1.754ZM51.927 61.148l-7.028-5.89 1.555-1.857 3.801.7c1.14.218 2.266.51 3.368.875l.025-.03a34.109 34.109 0 0 1-3.043-2.322l-2.056-1.72 1.225-1.458 7.028 5.895-1.38 1.652-3.98-.763a34.181 34.181 0 0 1-3.505-.86v.039a82.316 82.316 0 0 1 3.12 2.507l2.12 1.774-1.25 1.458ZM59.578 47.9l-2.586 2.168 1.4 1.667 2.887-2.43 1.093 1.302-4.486 3.762-5.9-7.028 4.335-3.64 1.094 1.303-2.742 2.303 1.225 1.458 2.586-2.167 1.093 1.302ZM61.356 40.47a18.46 18.46 0 0 1 2.43-1.42c1.56-.772 2.713-.996 3.802-.792 1.166.21 2.206.972 2.916 2.406a4.65 4.65 0 0 1 .287 4.004c-.486 1.147-1.653 2.144-3.262 2.94-.701.355-1.425.664-2.167.924l-4.006-8.063Zm5.191 5.773c.23-.073.454-.167.666-.282 1.687-.821 2.324-2.294 1.352-4.252-.837-1.71-2.285-2.12-3.889-1.327a4.321 4.321 0 0 0-.807.486l2.678 5.375ZM72.74 35.386l2.95 8.685-1.973.67-2.95-8.689 1.973-.666ZM79.262 43.08l-4.807-8.345 2.222-.486 1.91 3.557c.534.997 1.035 1.944 1.492 3.033h.039c0-1.128.044-2.25.126-3.344l.316-4.077 2.153-.486-1.084 9.617-2.367.53ZM93.265 36.635c.204 2.998-1.492 4.942-4.165 5.127-2.673.185-4.442-1.755-4.622-4.374-.19-2.74 1.424-4.913 4.126-5.098 2.814-.185 4.491 1.818 4.661 4.345Zm-6.605.573c.122 1.794 1.05 2.999 2.43 2.916 1.38-.083 2.11-1.458 1.988-3.26-.112-1.643-.972-3.004-2.43-2.917-1.458.088-2.11 1.483-1.988 3.261ZM95.282 32.325c.923-.07 1.849-.07 2.771 0 1.356.097 2.294.369 2.916.928a2.318 2.318 0 0 1 .705 1.973 2.434 2.434 0 0 1-1.774 2.138v.039c.617.301.928.938 1.098 1.798.214 1.05.414 2.265.564 2.634l-2.119-.15a11.486 11.486 0 0 1-.486-2.178c-.165-1.156-.535-1.496-1.375-1.57l-.623-.043-.257 3.596-2.051-.146.632-9.02Zm1.77 4.082.816.058c1.03.073 1.677-.398 1.735-1.2.059-.802-.486-1.303-1.428-1.385a5.175 5.175 0 0 0-.944 0l-.18 2.527ZM108.892 43.313a5.91 5.91 0 0 1-2.382-.166c-3.081-.738-4.209-3.037-3.601-5.579.729-3.042 3.305-4.213 6.007-3.567a5.41 5.41 0 0 1 2.1.924l-.792 1.501a4.494 4.494 0 0 0-1.614-.739c-1.599-.383-3.077.282-3.553 2.27-.428 1.788.36 3.164 2.158 3.596a5.193 5.193 0 0 0 1.75.112l-.073 1.648ZM116.294 42.545l-3.096-1.342-.865 1.998 3.461 1.497-.681 1.565-5.346-2.323 3.645-8.418 5.196 2.25-.676 1.56-3.305-1.424-.758 1.75 3.096 1.341-.671 1.546ZM119.599 46.462a5.29 5.29 0 0 0 1.502 1.832c.763.569 1.405.554 1.76.073.354-.481.189-.972-.462-1.944-.904-1.337-1.196-2.605-.399-3.674.934-1.254 2.698-1.458 4.433-.141a5.61 5.61 0 0 1 1.599 1.769l-1.37 1.064a4.371 4.371 0 0 0-1.279-1.497c-.719-.54-1.312-.486-1.599-.087-.35.486-.087.972.593 2.05.938 1.459 1.045 2.581.272 3.616-.918 1.235-2.649 1.57-4.666.068a6.005 6.005 0 0 1-1.749-2.002l1.365-1.127ZM130.394 53.625l-2.352-2.43-1.56 1.521 2.629 2.702-1.22 1.186-4.083-4.194 6.572-6.395 3.951 4.057-1.234 1.196-2.498-2.566-1.366 1.327 2.352 2.43-1.191 1.166ZM135.931 52.177a18.262 18.262 0 0 1 1.764 2.133c.792 1.103 1.181 1.998 1.142 2.834a2.326 2.326 0 0 1-1.069 1.803 2.431 2.431 0 0 1-2.78 0h-.034c.16.67-.127 1.316-.681 1.997-.675.836-1.458 1.764-1.662 2.114l-1.23-1.691c.396-.631.851-1.222 1.361-1.764.787-.866.812-1.37.331-2.061l-.365-.486-2.916 2.104-1.215-1.681 7.354-5.302Zm-2.008 3.97.486.666c.603.84 1.381 1.035 2.032.569.651-.467.695-1.2.151-1.983a5.27 5.27 0 0 0-.603-.724l-2.066 1.472ZM133.986 65.663l6.766-6.852 1.055 2.011-2.916 2.785c-.822.782-1.619 1.521-2.528 2.245v.034a38.497 38.497 0 0 1 3.257-.763l4.014-.777 1.021 1.944-9.56 1.511-1.109-2.138ZM146.002 69.789l-8.497 3.455-.782-1.944 8.496-3.455.783 1.944ZM140.388 81.083a5.934 5.934 0 0 1-1.075-2.129c-.942-3.027.457-5.17 2.951-5.948 2.989-.928 5.312.685 6.139 3.334.255.73.352 1.508.281 2.28l-1.696.087a4.466 4.466 0 0 0-.194-1.764c-.486-1.575-1.818-2.498-3.767-1.891-1.755.544-2.537 1.944-1.988 3.694.177.567.449 1.1.807 1.574l-1.458.763ZM145.248 86.866l-.656-3.31-2.134.423.729 3.699-1.667.33-1.162-5.744 8.997-1.779 1.099 5.555-1.668.33-.695-3.508-1.871.374.656 3.31-1.628.32Z" fill="#fff"/><defs><linearGradient id="b" x1="37.005" y1="22.3" x2="135.615" y2="158.105" gradientUnits="userSpaceOnUse"><stop stop-color="#D07B03"/><stop offset=".536" stop-color="#E5CE51"/><stop offset="1" stop-color="#DD9500"/></linearGradient><linearGradient id="c" x1="91.477" y1="26.716" x2="91.477" y2="156.279" gradientUnits="userSpaceOnUse"><stop stop-color="#0965C1"/><stop offset="1" stop-color="#043490"/></linearGradient><linearGradient id="d" x1="63.337" y1="57.302" x2="118.657" y2="126.703" gradientUnits="userSpaceOnUse"><stop stop-color="#C5C5C5"/><stop offset=".42" stop-color="#fff"/><stop offset=".619" stop-color="#fff"/><stop offset="1" stop-color="#CDCDCD"/></linearGradient><filter id="a" x=".976" y=".976" width="182.047" height="183.047" filterUnits="userSpaceOnUse" color-interpolation-filters="sRGB"><feFlood flood-opacity="0" result="BackgroundImageFix"/><feColorMatrix in="SourceAlpha" values="0 0 0 0 0 0 0 0 0 0 0 0 0 0 0 0 0 0 127 0" result="hardAlpha"/><feOffset dx="1" dy="2"/><feGaussianBlur stdDeviation="2.5"/><feColorMatrix values="0 0 0 0 0.287254 0 0 0 0 0.240229 0 0 0 0 0.0419043 0 0 0 1 0"/><feBlend in2="BackgroundImageFix" result="effect1_dropShadow_107_103"/><feColorMatrix in="SourceAlpha" values="0 0 0 0 0 0 0 0 0 0 0 0 0 0 0 0 0 0 127 0" result="hardAlpha"/><feOffset/><feGaussianBlur stdDeviation="2.5"/><feColorMatrix values="0 0 0 0 0.372549 0 0 0 0 0.301961 0 0 0 0 0.0392157 0 0 0 0.3 0"/><feBlend in2="effect1_dropShadow_107_103" result="effect2_dropShadow_107_103"/><feBlend in="SourceGraphic" in2="effect2_dropShadow_107_103" result="shape"/></filter></defs></svg>